<?xml version="1.0" encoding="UTF-8"?>
<svg xmlns="http://www.w3.org/2000/svg" xmlns:xlink="http://www.w3.org/1999/xlink" width="90px" height="90px" viewBox="0 0 90 90" version="1.1">
<g id="surface1">
<path style=" stroke:none;fill-rule:nonzero;fill:rgb(29.803923%,68.627453%,31.37255%);fill-opacity:1;" d="M 84.375 30.375 L 75 35.53125 L 65.625 44.4375 L 65.625 75 L 78.75 75 C 81.855469 75 84.375 72.480469 84.375 69.375 Z M 84.375 30.375 "/>
<path style=" stroke:none;fill-rule:nonzero;fill:rgb(11.764706%,53.333336%,89.803922%);fill-opacity:1;" d="M 5.625 30.375 L 12.402344 33.582031 L 24.375 44.4375 L 24.375 75 L 11.25 75 C 8.144531 75 5.625 72.480469 5.625 69.375 Z M 5.625 30.375 "/>
<path style=" stroke:none;fill-rule:nonzero;fill:rgb(89.803922%,22.352941%,20.784314%);fill-opacity:1;" d="M 65.625 21 L 45 36.46875 L 24.375 21 L 22.5 31.875 L 24.375 44.4375 L 45 59.90625 L 65.625 44.4375 L 67.5 31.875 Z M 65.625 21 "/>
<path style=" stroke:none;fill-rule:nonzero;fill:rgb(77.64706%,15.686275%,15.686275%);fill-opacity:1;" d="M 5.625 23.058594 L 5.625 30.375 L 24.375 44.4375 L 24.375 21 L 18.515625 16.609375 C 17.121094 15.5625 15.425781 15 13.683594 15 C 9.234375 15 5.625 18.609375 5.625 23.058594 Z M 5.625 23.058594 "/>
<path style=" stroke:none;fill-rule:nonzero;fill:rgb(98.431373%,75.294119%,17.647059%);fill-opacity:1;" d="M 84.375 23.058594 L 84.375 30.375 L 65.625 44.4375 L 65.625 21 L 71.484375 16.609375 C 72.878906 15.5625 74.574219 15 76.316406 15 C 80.765625 15 84.375 18.609375 84.375 23.058594 Z M 84.375 23.058594 "/>
</g>
</svg>
