<?xml version="1.0" encoding="UTF-8"?>
<svg xmlns="http://www.w3.org/2000/svg" xmlns:xlink="http://www.w3.org/1999/xlink" width="90px" height="90px" viewBox="0 0 90 90" version="1.1">
<g id="surface1">
<path style=" stroke:none;fill-rule:nonzero;fill:rgb(1.176471%,60.784316%,89.803922%);fill-opacity:1;" d="M 45 9.375 C 25.324219 9.375 9.375 25.324219 9.375 45 C 9.375 64.675781 25.324219 80.625 45 80.625 C 64.675781 80.625 80.625 64.675781 80.625 45 C 80.625 25.324219 64.675781 9.375 45 9.375 Z M 45 9.375 "/>
<path style=" stroke:none;fill-rule:nonzero;fill:rgb(100%,100%,100%);fill-opacity:1;" d="M 49.824219 54.441406 L 59.042969 54.441406 L 60.488281 45.078125 L 49.820312 45.078125 L 49.820312 39.957031 C 49.820312 36.066406 51.09375 32.617188 54.730469 32.617188 L 60.578125 32.617188 L 60.578125 24.445312 C 59.550781 24.304688 57.378906 24 53.273438 24 C 44.699219 24 39.671875 28.53125 39.671875 38.847656 L 39.671875 45.078125 L 30.855469 45.078125 L 30.855469 54.441406 L 39.671875 54.441406 L 39.671875 80.183594 C 41.417969 80.445312 43.183594 80.625 45 80.625 C 46.640625 80.625 48.242188 80.476562 49.824219 80.261719 Z M 49.824219 54.441406 "/>
</g>
</svg>
