<?xml version="1.0" standalone="no"?>
<!DOCTYPE svg PUBLIC "-//W3C//DTD SVG 20010904//EN"
 "http://www.w3.org/TR/2001/REC-SVG-20010904/DTD/svg10.dtd">
<svg version="1.0" xmlns="http://www.w3.org/2000/svg"
 width="700.000000pt" height="700.000000pt" viewBox="0 0 700.000000 700.000000"
 preserveAspectRatio="xMidYMid meet">

<g transform="translate(0.000000,700.000000) scale(0.100000,-0.100000)"
fill="#000000" stroke="none">
<path d="M3223 5964 c-213 -31 -400 -88 -592 -180 -231 -111 -400 -233 -581
-420 -222 -229 -365 -466 -465 -769 -245 -739 -40 -1551 527 -2090 l100 -95
-51 -252 c-69 -342 -68 -436 8 -586 50 -100 110 -165 219 -238 2 -1 -2 -11 -9
-22 -17 -27 11 -101 58 -152 l33 -38 -322 -5 c-314 -6 -388 -11 -388 -27 0 -4
8 -12 18 -16 22 -11 3365 -17 3417 -6 45 9 56 26 23 37 -13 4 -163 10 -334 12
l-310 5 29 31 c65 70 89 159 47 172 -17 6 -12 13 39 50 103 76 182 197 211
325 24 102 18 180 -40 460 l-54 266 84 79 c568 541 771 1358 521 2103 -68 204
-168 396 -299 571 -72 97 -245 275 -342 354 -288 233 -640 383 -1008 432 -138
18 -412 18 -539 -1z m-751 -1126 c14 -36 1 -38 -242 -38 -182 0 -239 3 -243
13 -12 35 1 37 243 37 181 0 239 -3 242 -12z m1843 -13 c0 -20 -8 -20 -814
-23 -612 -1 -817 1 -822 10 -24 38 -30 38 820 36 808 -3 816 -3 816 -23z m760
0 c0 -19 -8 -20 -209 -23 -124 -1 -214 2 -219 7 -5 5 -7 17 -4 26 6 13 33 15
219 13 205 -3 213 -4 213 -23z m-1490 -114 c13 -5 -7 -10 -60 -13 -93 -5 -147
-28 -283 -117 -96 -63 -251 -190 -316 -259 -32 -34 -47 -43 -66 -40 -23 4 -17
12 72 100 148 146 336 279 453 320 52 18 164 23 200 9z m-1330 -95 c16 -12 17
-16 6 -30 -11 -13 -36 -16 -136 -16 -100 0 -125 3 -136 16 -26 31 13 44 136
44 79 0 117 -4 130 -14z m855 6 c0 -5 -13 -18 -30 -30 -28 -21 -37 -22 -298
-22 -235 0 -271 2 -283 16 -11 14 -10 18 6 30 15 11 77 14 312 14 161 0 293
-4 293 -8z m1418 -1 c8 -5 12 -17 10 -27 -3 -18 -19 -19 -296 -22 -288 -2
-293 -2 -322 20 -17 12 -30 25 -30 30 0 11 621 10 638 -1z m540 0 c8 -5 12
-17 10 -27 -3 -18 -16 -19 -184 -22 -147 -2 -183 0 -193 12 -9 11 -8 17 4 30
14 13 43 16 183 16 92 0 173 -4 180 -9z m-1270 -240 c40 -12 101 -35 135 -51
34 -17 53 -28 42 -24 -93 28 -221 55 -308 65 -102 11 -105 11 -135 -11 -25
-19 -37 -21 -74 -15 -118 19 -201 -4 -284 -80 -38 -35 -54 -43 -54 -26 0 14
86 88 127 109 40 20 120 47 163 56 14 2 90 3 170 1 111 -2 162 -8 218 -24z
m-948 10 c0 -5 -12 -19 -26 -30 -26 -20 -37 -21 -418 -21 -319 0 -396 3 -411
14 -16 12 -17 16 -6 30 12 14 60 16 437 16 254 0 424 -4 424 -9z m2228 -17 c2
-15 -4 -23 -20 -28 -13 -3 -210 -6 -439 -6 -406 0 -417 1 -443 21 -14 11 -26
25 -26 30 0 6 180 8 463 7 l462 -3 3 -21z m-2055 -91 c2 -27 8 -57 12 -67 6
-13 5 -17 -3 -13 -16 11 -45 94 -39 112 12 29 24 15 30 -32z m-195 -64 c-10
-5 -18 -21 -18 -35 0 -14 -4 -22 -10 -19 -11 7 -14 48 -3 58 3 4 16 7 27 7 19
-1 19 -2 4 -11z m-563 -74 c0 -19 -8 -20 -136 -23 -118 -2 -137 0 -143 14 -3
9 -3 20 0 25 3 5 65 8 142 7 129 -3 137 -4 137 -23z m389 0 c-15 -24 -21 -25
-104 -25 -71 0 -89 3 -94 16 -11 29 5 34 110 34 l104 0 -16 -25z m2424 3 l-3
-23 -356 -3 -357 -2 -16 25 -16 25 375 0 376 0 -3 -22z m-2323 -7 c4 -12 -12
-47 -47 -102 -117 -189 -178 -379 -178 -558 0 -58 4 -122 10 -140 18 -65 1
-43 -19 24 -46 148 -11 383 86 580 33 67 126 215 135 215 4 0 9 -8 13 -19z
m205 -127 c0 -4 -16 -25 -36 -47 -94 -103 -116 -276 -65 -492 11 -44 18 -81
16 -83 -5 -6 -42 117 -55 186 -7 34 -10 105 -8 164 5 123 29 189 89 243 36 33
59 44 59 29z m-427 -81 c-15 -43 -16 -43 -278 -43 -212 0 -255 2 -265 15 -10
12 -10 18 0 30 10 13 54 15 281 15 251 0 268 -1 262 -17z m2152 -13 c0 -25 -1
-25 -101 -28 l-102 -3 -10 31 -11 31 112 -3 112 -3 0 -25z m390 0 l0 -25 -113
-3 c-93 -2 -113 0 -118 13 -3 8 -3 22 0 30 5 13 25 15 118 13 l113 -3 0 -25z
m-1899 -262 c64 -28 127 -34 143 -14 12 14 11 21 -6 44 -37 51 -37 57 -2 34
68 -46 196 -102 278 -123 72 -18 104 -20 215 -16 72 3 140 8 152 12 19 6 21
-1 37 -89 18 -99 52 -191 80 -215 13 -10 17 -31 17 -95 0 -153 -47 -265 -154
-371 -214 -212 -580 -233 -822 -49 -132 100 -198 232 -211 419 l-6 90 50 76
c57 87 90 180 106 296 l11 81 35 -30 c19 -17 54 -39 77 -50z m-720 46 c-3 -9
-6 -20 -6 -25 0 -15 -457 -12 -463 4 -12 35 1 37 240 37 210 0 234 -2 229 -16z
m2619 -9 c0 -19 -8 -20 -262 -23 -159 -1 -263 1 -263 7 0 5 -3 17 -6 25 -6 15
20 16 262 14 261 -3 269 -4 269 -23z m-2790 -209 c16 -12 17 -16 6 -30 -11
-13 -37 -16 -151 -16 -114 0 -140 3 -151 16 -11 14 -10 18 6 30 14 10 53 14
145 14 92 0 131 -4 145 -14z m2333 5 c25 -16 9 -46 -26 -49 -28 -3 -32 0 -32
21 0 13 3 27 7 30 9 10 35 8 51 -2z m450 0 c8 -5 12 -17 10 -27 -3 -17 -15
-19 -131 -22 -107 -2 -128 0 -133 13 -14 35 14 45 130 45 61 0 117 -4 124 -9z
m-2237 -131 c24 -61 29 -90 29 -157 0 -95 -9 -103 -60 -52 -72 73 -115 225
-74 270 12 13 28 19 47 17 26 -3 32 -11 58 -78z m1445 55 c23 -35 14 -110 -21
-180 -26 -50 -84 -115 -103 -115 -4 0 -6 35 -4 77 2 65 9 92 40 160 40 90 59
102 88 58z m-1776 -171 c6 -14 10 -28 10 -31 0 -3 -115 -4 -255 -1 -263 4
-293 9 -265 43 11 13 49 15 256 15 l244 0 10 -26z m2578 0 c3 -19 -3 -21 -80
-27 -46 -4 -162 -7 -259 -7 -144 0 -179 3 -189 15 -7 8 -10 22 -6 30 5 13 40
15 268 13 258 -3 263 -3 266 -24z m-2365 -320 c3 -3 -30 -24 -73 -45 -127 -64
-221 -168 -272 -301 -20 -53 -23 -66 -107 -466 -68 -324 -68 -402 3 -559 22
-49 23 -54 6 -33 -31 37 -66 108 -84 169 -30 101 -22 190 49 541 85 417 99
453 218 567 86 83 232 154 260 127z m1819 -385 c32 -15 69 -64 77 -102 4 -18
-14 -272 -41 -572 -47 -535 -48 -539 -73 -565 l-25 -25 -945 -3 -944 -2 -31
27 -31 28 -45 505 c-24 278 -45 531 -45 562 -1 69 21 113 71 139 33 18 78 19
1022 19 694 0 994 -3 1010 -11z m-2015 -1296 l36 -28 971 0 971 0 32 23 c30
21 73 30 73 14 0 -18 -65 -84 -103 -105 l-42 -22 -915 -3 c-668 -2 -926 0
-955 8 -22 7 -55 23 -73 37 -31 23 -72 78 -72 96 0 16 44 5 77 -20z"/>
<path d="M3174 3349 c-30 -9 -82 -54 -72 -64 3 -3 17 -1 32 5 34 13 111 13
155 0 19 -5 37 -7 40 -4 10 9 -58 64 -78 64 -11 0 -25 2 -33 4 -7 2 -27 0 -44
-5z"/>
<path d="M3755 3345 c-35 -13 -82 -52 -72 -61 2 -2 19 1 38 6 44 13 121 13
155 0 31 -12 37 -9 28 14 -15 38 -94 60 -149 41z"/>
<path d="M3185 3220 c-11 -12 -20 -41 -23 -73 -5 -67 22 -107 72 -107 105 0
109 189 4 198 -24 2 -39 -3 -53 -18z m89 -46 c7 -19 -12 -47 -25 -38 -5 3 -9
16 -9 30 0 27 24 33 34 8z"/>
<path d="M3731 3221 c-46 -46 -32 -156 20 -175 80 -28 138 68 94 153 -23 46
-80 56 -114 22z m46 -47 c8 -21 -13 -42 -28 -27 -13 13 -5 43 11 43 6 0 13 -7
17 -16z"/>
<path d="M3330 2913 c0 -22 69 -71 108 -78 30 -5 51 -1 84 14 l43 20 -60 -5
c-63 -6 -120 9 -157 43 -10 9 -18 11 -18 6z"/>
<path d="M3455 2181 c-88 -23 -166 -87 -206 -169 -34 -70 -33 -178 2 -252 15
-30 38 -66 51 -80 14 -14 28 -42 32 -62 12 -63 27 -69 186 -74 129 -3 142 -2
160 16 11 11 20 32 20 46 0 17 16 44 44 75 135 150 85 391 -98 475 -56 26
-144 37 -191 25z m146 -56 c177 -61 230 -296 95 -427 -21 -21 -36 -45 -36 -59
0 -13 -4 -30 -9 -37 -13 -21 -44 -10 -52 18 l-6 25 -8 -28 c-9 -35 -48 -35
-53 1 -4 28 -15 28 -27 0 -16 -37 -43 -34 -54 4 -6 23 -9 27 -10 12 -1 -12 -8
-27 -16 -34 -20 -17 -45 4 -45 37 0 15 -16 43 -39 70 -177 201 11 503 260 418z"/>
<path d="M3378 1913 c-24 -28 -27 -47 -13 -81 34 -80 156 -29 125 52 -17 45
-83 62 -112 29z"/>
<path d="M3570 1910 c-41 -41 -10 -120 47 -120 31 0 73 43 73 75 0 34 -33 65
-70 65 -17 0 -39 -9 -50 -20z"/>
</g>
</svg>
