<?xml version="1.0" encoding="UTF-8"?>
<svg xmlns="http://www.w3.org/2000/svg" xmlns:xlink="http://www.w3.org/1999/xlink" width="90px" height="90px" viewBox="0 0 90 90" version="1.1">
<g id="surface1">
<path style=" stroke:none;fill-rule:nonzero;fill:rgb(0.784314%,53.333336%,81.960785%);fill-opacity:1;" d="M 78.75 69.375 C 78.75 74.554688 74.554688 78.75 69.375 78.75 L 20.625 78.75 C 15.449219 78.75 11.25 74.554688 11.25 69.375 L 11.25 20.625 C 11.25 15.445312 15.449219 11.25 20.625 11.25 L 69.375 11.25 C 74.554688 11.25 78.75 15.445312 78.75 20.625 Z M 78.75 69.375 "/>
<path style=" stroke:none;fill-rule:nonzero;fill:rgb(100%,100%,100%);fill-opacity:1;" d="M 22.5 35.625 L 31.875 35.625 L 31.875 67.5 L 22.5 67.5 Z M 27.160156 31.875 L 27.105469 31.875 C 24.308594 31.875 22.5 29.789062 22.5 27.1875 C 22.5 24.523438 24.367188 22.5 27.214844 22.5 C 30.066406 22.5 31.824219 24.523438 31.875 27.1875 C 31.875 29.789062 30.066406 31.875 27.160156 31.875 Z M 67.5 67.5 L 58.125 67.5 L 58.125 50.4375 C 58.125 46.316406 55.828125 43.503906 52.140625 43.503906 C 49.324219 43.503906 47.804688 45.402344 47.0625 47.238281 C 46.792969 47.894531 46.875 49.707031 46.875 50.625 L 46.875 67.5 L 37.5 67.5 L 37.5 35.625 L 46.875 35.625 L 46.875 40.53125 C 48.226562 38.4375 50.34375 35.625 55.757812 35.625 C 62.46875 35.625 67.5 39.84375 67.5 49.265625 Z M 67.5 67.5 "/>
</g>
</svg>
