<?xml version="1.0" encoding="UTF-8"?>
<svg xmlns="http://www.w3.org/2000/svg" xmlns:xlink="http://www.w3.org/1999/xlink" width="90px" height="90px" viewBox="0 0 90 90" version="1.1">
<g id="surface1">
<path style=" stroke:none;fill-rule:evenodd;fill:rgb(100%,100%,100%);fill-opacity:1;" d="M 9.128906 81.191406 L 14.179688 62.753906 C 11.0625 57.355469 9.421875 51.234375 9.425781 44.960938 C 9.433594 25.339844 25.402344 9.375 45.027344 9.375 C 54.550781 9.378906 63.484375 13.085938 70.207031 19.8125 C 76.925781 26.539062 80.628906 35.480469 80.625 44.988281 C 80.617188 64.609375 64.644531 80.578125 45.027344 80.578125 C 45.023438 80.578125 45.027344 80.578125 45.027344 80.578125 L 45.011719 80.578125 C 39.054688 80.574219 33.199219 79.078125 28 76.242188 Z M 9.128906 81.191406 "/>
<path style=" stroke:none;fill-rule:evenodd;fill:rgb(100%,100%,100%);fill-opacity:1;" d="M 9.128906 82.128906 C 8.878906 82.128906 8.640625 82.03125 8.460938 81.851562 C 8.226562 81.613281 8.136719 81.269531 8.222656 80.949219 L 13.171875 62.878906 C 10.105469 57.429688 8.484375 51.242188 8.488281 44.960938 C 8.496094 24.820312 24.886719 8.4375 45.027344 8.4375 C 54.796875 8.441406 63.972656 12.246094 70.871094 19.148438 C 77.769531 26.054688 81.566406 35.230469 81.5625 44.988281 C 81.554688 65.128906 65.164062 81.515625 45.027344 81.515625 C 39.046875 81.511719 33.132812 80.035156 27.882812 77.246094 L 9.367188 82.097656 C 9.285156 82.121094 9.207031 82.128906 9.128906 82.128906 Z M 9.128906 82.128906 "/>
<path style=" stroke:none;fill-rule:evenodd;fill:rgb(81.176472%,84.705883%,86.274511%);fill-opacity:1;" d="M 45.027344 9.375 C 54.550781 9.378906 63.484375 13.085938 70.207031 19.8125 C 76.925781 26.539062 80.628906 35.480469 80.625 44.988281 C 80.617188 64.609375 64.644531 80.578125 45.027344 80.578125 L 45.011719 80.578125 C 39.054688 80.574219 33.199219 79.078125 28 76.242188 L 9.128906 81.191406 L 14.179688 62.753906 C 11.0625 57.355469 9.421875 51.234375 9.425781 44.960938 C 9.433594 25.339844 25.402344 9.375 45.027344 9.375 M 45.027344 80.578125 L 45.027344 80.578125 M 45.027344 80.578125 L 45.027344 80.578125 M 45.027344 7.5 C 24.371094 7.5 7.558594 24.304688 7.550781 44.960938 C 7.546875 51.273438 9.140625 57.496094 12.164062 63 L 7.316406 80.699219 C 7.140625 81.347656 7.320312 82.035156 7.792969 82.511719 C 8.152344 82.875 8.632812 83.070312 9.128906 83.070312 C 9.285156 83.070312 9.445312 83.050781 9.605469 83.007812 L 27.765625 78.246094 C 33.070312 81 39.011719 82.453125 45.011719 82.453125 C 65.679688 82.453125 82.492188 65.648438 82.5 44.992188 C 82.503906 34.980469 78.609375 25.566406 71.535156 18.488281 C 64.457031 11.40625 55.042969 7.503906 45.027344 7.5 Z M 45.027344 7.5 "/>
<path style=" stroke:none;fill-rule:evenodd;fill:rgb(25.098041%,76.47059%,31.764707%);fill-opacity:1;" d="M 65.953125 24.058594 C 60.367188 18.46875 52.941406 15.386719 45.035156 15.386719 C 28.714844 15.386719 15.441406 28.652344 15.433594 44.960938 C 15.433594 50.550781 16.996094 55.992188 19.960938 60.703125 L 20.664062 61.824219 L 17.671875 72.738281 L 28.875 69.800781 L 29.953125 70.445312 C 34.496094 73.140625 39.703125 74.566406 45.015625 74.566406 L 45.027344 74.566406 C 61.335938 74.566406 74.609375 61.296875 74.613281 44.988281 C 74.617188 37.082031 71.542969 29.652344 65.953125 24.058594 Z M 65.953125 24.058594 "/>
<path style=" stroke:none;fill-rule:evenodd;fill:rgb(100%,100%,100%);fill-opacity:1;" d="M 36.128906 30.085938 C 35.460938 28.601562 34.761719 28.574219 34.125 28.546875 C 33.605469 28.523438 33.011719 28.527344 32.421875 28.527344 C 31.828125 28.527344 30.863281 28.75 30.046875 29.640625 C 29.234375 30.53125 26.933594 32.679688 26.933594 37.058594 C 26.933594 41.433594 30.121094 45.664062 30.566406 46.257812 C 31.011719 46.847656 36.71875 56.117188 45.761719 59.683594 C 53.273438 62.644531 54.804688 62.058594 56.4375 61.910156 C 58.066406 61.761719 61.699219 59.757812 62.4375 57.679688 C 63.179688 55.601562 63.179688 53.824219 62.957031 53.453125 C 62.734375 53.082031 62.144531 52.859375 61.253906 52.414062 C 60.367188 51.96875 55.992188 49.816406 55.175781 49.519531 C 54.359375 49.222656 53.765625 49.078125 53.171875 49.96875 C 52.582031 50.855469 50.875 52.859375 50.355469 53.453125 C 49.835938 54.046875 49.316406 54.121094 48.429688 53.675781 C 47.539062 53.230469 44.675781 52.292969 41.277344 49.261719 C 38.632812 46.90625 36.847656 43.992188 36.328125 43.101562 C 35.808594 42.214844 36.273438 41.730469 36.71875 41.289062 C 37.117188 40.886719 37.605469 40.25 38.054688 39.730469 C 38.496094 39.210938 38.644531 38.839844 38.941406 38.246094 C 39.238281 37.652344 39.089844 37.132812 38.867188 36.6875 C 38.648438 36.242188 36.917969 31.84375 36.128906 30.085938 Z M 36.128906 30.085938 "/>
</g>
</svg>
